<mxfile host="app.diagrams.net" agent="Mozilla/5.0 (Windows NT 10.0; Win64; x64) AppleWebKit/537.36 (KHTML, like Gecko) Chrome/128.0.0.0 Safari/537.36" version="24.7.14" pages="3">
  <diagram id="f106602c-feb2-e66a-4537-3a34d633f6aa" name="Backend">
    <mxGraphModel dx="1354" dy="786" grid="1" gridSize="10" guides="1" tooltips="1" connect="1" arrows="1" fold="1" page="1" pageScale="1" pageWidth="1169" pageHeight="827" background="none" math="0" shadow="0">
      <root>
        <mxCell id="0" />
        <mxCell id="1" parent="0" />
        <mxCell id="43L5ap1hN-f6bD0QUk5p-23" value="" style="group" vertex="1" connectable="0" parent="1">
          <mxGeometry x="200" y="700" width="120" height="100" as="geometry" />
        </mxCell>
        <mxCell id="43L5ap1hN-f6bD0QUk5p-24" value="DB_Shared" style="shape=cylinder3;whiteSpace=wrap;html=1;boundedLbl=1;backgroundOutline=1;size=15;fillColor=#f8cecc;strokeColor=#b85450;" vertex="1" parent="43L5ap1hN-f6bD0QUk5p-23">
          <mxGeometry y="20" width="120" height="80" as="geometry" />
        </mxCell>
        <mxCell id="43L5ap1hN-f6bD0QUk5p-25" value="" style="shape=image;verticalLabelPosition=bottom;labelBackgroundColor=default;verticalAlign=top;aspect=fixed;imageAspect=0;image=https://static-00.iconduck.com/assets.00/mysql-original-wordmark-icon-2048x1064-jfbaqrzh.png;container=0;" vertex="1" parent="43L5ap1hN-f6bD0QUk5p-23">
          <mxGeometry x="21.480000000000018" width="77.04" height="40" as="geometry" />
        </mxCell>
        <mxCell id="wpemW0vhm0GdFGpqE2XI-1" value="" style="group" vertex="1" connectable="0" parent="1">
          <mxGeometry x="360" y="560" width="120" height="240" as="geometry" />
        </mxCell>
        <mxCell id="xkKTBkhneHixOB8WJE4L-42" value="" style="group" parent="wpemW0vhm0GdFGpqE2XI-1" vertex="1" connectable="0">
          <mxGeometry width="120" height="140" as="geometry" />
        </mxCell>
        <mxCell id="xkKTBkhneHixOB8WJE4L-43" value="Notification Server" style="rounded=1;whiteSpace=wrap;html=1;" parent="xkKTBkhneHixOB8WJE4L-42" vertex="1">
          <mxGeometry width="120" height="40" as="geometry" />
        </mxCell>
        <UserObject label="" id="xkKTBkhneHixOB8WJE4L-44">
          <mxCell style="group" parent="xkKTBkhneHixOB8WJE4L-42" vertex="1" connectable="0">
            <mxGeometry x="10" y="60" width="100" height="80" as="geometry" />
          </mxCell>
        </UserObject>
        <mxCell id="xkKTBkhneHixOB8WJE4L-45" value="" style="sketch=0;pointerEvents=1;shadow=0;dashed=0;html=1;strokeColor=none;fillColor=#505050;labelPosition=center;verticalLabelPosition=bottom;verticalAlign=top;outlineConnect=0;align=center;shape=mxgraph.office.servers.server_generic;" parent="xkKTBkhneHixOB8WJE4L-44" vertex="1">
          <mxGeometry x="50" width="40" height="80" as="geometry" />
        </mxCell>
        <mxCell id="xkKTBkhneHixOB8WJE4L-46" value="" style="shape=image;html=1;verticalAlign=top;verticalLabelPosition=bottom;labelBackgroundColor=#ffffff;imageAspect=0;aspect=fixed;image=https://cdn3.iconfinder.com/data/icons/popular-services-brands/512/laravel-128.png" parent="xkKTBkhneHixOB8WJE4L-44" vertex="1">
          <mxGeometry x="11.879999999999995" y="44" width="30" height="30" as="geometry" />
        </mxCell>
        <mxCell id="xkKTBkhneHixOB8WJE4L-47" value="" style="shape=image;html=1;verticalAlign=top;verticalLabelPosition=bottom;labelBackgroundColor=#ffffff;imageAspect=0;aspect=fixed;image=https://cdn4.iconfinder.com/data/icons/logos-3/568/php-logo-128.png" parent="xkKTBkhneHixOB8WJE4L-44" vertex="1">
          <mxGeometry x="11.879999999999995" y="10" width="30" height="30" as="geometry" />
        </mxCell>
        <mxCell id="43L5ap1hN-f6bD0QUk5p-15" value="" style="group" vertex="1" connectable="0" parent="wpemW0vhm0GdFGpqE2XI-1">
          <mxGeometry y="140" width="120" height="100" as="geometry" />
        </mxCell>
        <mxCell id="xkKTBkhneHixOB8WJE4L-48" value="DB_Notification" style="shape=cylinder3;whiteSpace=wrap;html=1;boundedLbl=1;backgroundOutline=1;size=15;fillColor=#f8cecc;strokeColor=#b85450;" parent="43L5ap1hN-f6bD0QUk5p-15" vertex="1">
          <mxGeometry y="20" width="120" height="80" as="geometry" />
        </mxCell>
        <mxCell id="43L5ap1hN-f6bD0QUk5p-11" value="" style="shape=image;verticalLabelPosition=bottom;labelBackgroundColor=default;verticalAlign=top;aspect=fixed;imageAspect=0;image=https://static-00.iconduck.com/assets.00/sqlite-icon-2048x909-7nkrc3bm.png;" vertex="1" parent="43L5ap1hN-f6bD0QUk5p-15">
          <mxGeometry x="26.23" y="10" width="67.54" height="30" as="geometry" />
        </mxCell>
        <mxCell id="wpemW0vhm0GdFGpqE2XI-2" value="" style="group" vertex="1" connectable="0" parent="1">
          <mxGeometry x="680" y="480" width="120" height="240" as="geometry" />
        </mxCell>
        <mxCell id="v0CTncaFIIi6fotuZivB-26" value="" style="group" parent="wpemW0vhm0GdFGpqE2XI-2" vertex="1" connectable="0">
          <mxGeometry width="120" height="140" as="geometry" />
        </mxCell>
        <mxCell id="wpemW0vhm0GdFGpqE2XI-20" style="edgeStyle=orthogonalEdgeStyle;rounded=0;orthogonalLoop=1;jettySize=auto;html=1;exitX=0.5;exitY=0;exitDx=0;exitDy=0;" edge="1" parent="v0CTncaFIIi6fotuZivB-26" source="v0CTncaFIIi6fotuZivB-27">
          <mxGeometry relative="1" as="geometry">
            <mxPoint x="-100" y="-90" as="targetPoint" />
            <Array as="points">
              <mxPoint x="60" y="-40" />
              <mxPoint x="-99" y="-40" />
              <mxPoint x="-99" y="-90" />
            </Array>
          </mxGeometry>
        </mxCell>
        <mxCell id="v0CTncaFIIi6fotuZivB-27" value="Customer Service" style="rounded=1;whiteSpace=wrap;html=1;" parent="v0CTncaFIIi6fotuZivB-26" vertex="1">
          <mxGeometry width="120" height="40" as="geometry" />
        </mxCell>
        <UserObject label="" id="v0CTncaFIIi6fotuZivB-28">
          <mxCell style="group" parent="v0CTncaFIIi6fotuZivB-26" vertex="1" connectable="0">
            <mxGeometry x="10" y="60" width="100" height="80" as="geometry" />
          </mxCell>
        </UserObject>
        <mxCell id="v0CTncaFIIi6fotuZivB-29" value="" style="sketch=0;pointerEvents=1;shadow=0;dashed=0;html=1;strokeColor=none;fillColor=#505050;labelPosition=center;verticalLabelPosition=bottom;verticalAlign=top;outlineConnect=0;align=center;shape=mxgraph.office.servers.server_generic;" parent="v0CTncaFIIi6fotuZivB-28" vertex="1">
          <mxGeometry x="50" width="40" height="80" as="geometry" />
        </mxCell>
        <mxCell id="v0CTncaFIIi6fotuZivB-30" value="" style="shape=image;html=1;verticalAlign=top;verticalLabelPosition=bottom;labelBackgroundColor=#ffffff;imageAspect=0;aspect=fixed;image=https://cdn3.iconfinder.com/data/icons/popular-services-brands/512/laravel-128.png" parent="v0CTncaFIIi6fotuZivB-28" vertex="1">
          <mxGeometry x="11.879999999999995" y="44" width="30" height="30" as="geometry" />
        </mxCell>
        <mxCell id="v0CTncaFIIi6fotuZivB-31" value="" style="shape=image;html=1;verticalAlign=top;verticalLabelPosition=bottom;labelBackgroundColor=#ffffff;imageAspect=0;aspect=fixed;image=https://cdn4.iconfinder.com/data/icons/logos-3/568/php-logo-128.png" parent="v0CTncaFIIi6fotuZivB-28" vertex="1">
          <mxGeometry x="11.879999999999995" y="10" width="30" height="30" as="geometry" />
        </mxCell>
        <mxCell id="43L5ap1hN-f6bD0QUk5p-22" value="" style="group" vertex="1" connectable="0" parent="wpemW0vhm0GdFGpqE2XI-2">
          <mxGeometry y="140" width="120" height="100" as="geometry" />
        </mxCell>
        <mxCell id="v0CTncaFIIi6fotuZivB-32" value="DB_CRM" style="shape=cylinder3;whiteSpace=wrap;html=1;boundedLbl=1;backgroundOutline=1;size=15;fillColor=#f8cecc;strokeColor=#b85450;" parent="43L5ap1hN-f6bD0QUk5p-22" vertex="1">
          <mxGeometry y="20" width="120" height="80" as="geometry" />
        </mxCell>
        <mxCell id="43L5ap1hN-f6bD0QUk5p-21" value="" style="shape=image;verticalLabelPosition=bottom;labelBackgroundColor=default;verticalAlign=top;aspect=fixed;imageAspect=0;image=https://cdn4.iconfinder.com/data/icons/flat-brand-logo-2/512/oracle-512.png;" vertex="1" parent="43L5ap1hN-f6bD0QUk5p-22">
          <mxGeometry x="15" y="-10" width="90" height="90" as="geometry" />
        </mxCell>
        <mxCell id="wpemW0vhm0GdFGpqE2XI-3" value="" style="group" vertex="1" connectable="0" parent="1">
          <mxGeometry x="520" y="480" width="120" height="240" as="geometry" />
        </mxCell>
        <mxCell id="xkKTBkhneHixOB8WJE4L-50" value="" style="group" parent="wpemW0vhm0GdFGpqE2XI-3" vertex="1" connectable="0">
          <mxGeometry width="120" height="140" as="geometry" />
        </mxCell>
        <mxCell id="43L5ap1hN-f6bD0QUk5p-33" value="" style="group" vertex="1" connectable="0" parent="xkKTBkhneHixOB8WJE4L-50">
          <mxGeometry width="120" height="140" as="geometry" />
        </mxCell>
        <UserObject label="" id="xkKTBkhneHixOB8WJE4L-52">
          <mxCell style="group" parent="43L5ap1hN-f6bD0QUk5p-33" vertex="1" connectable="0">
            <mxGeometry x="10" y="60" width="100" height="80" as="geometry" />
          </mxCell>
        </UserObject>
        <mxCell id="xkKTBkhneHixOB8WJE4L-53" value="" style="sketch=0;pointerEvents=1;shadow=0;dashed=0;html=1;strokeColor=none;fillColor=#505050;labelPosition=center;verticalLabelPosition=bottom;verticalAlign=top;outlineConnect=0;align=center;shape=mxgraph.office.servers.server_generic;" parent="xkKTBkhneHixOB8WJE4L-52" vertex="1">
          <mxGeometry x="50" width="40" height="80" as="geometry" />
        </mxCell>
        <mxCell id="xkKTBkhneHixOB8WJE4L-54" value="" style="shape=image;html=1;verticalAlign=top;verticalLabelPosition=bottom;labelBackgroundColor=#ffffff;imageAspect=0;aspect=fixed;image=https://cdn3.iconfinder.com/data/icons/popular-services-brands/512/laravel-128.png" parent="xkKTBkhneHixOB8WJE4L-52" vertex="1">
          <mxGeometry x="11.879999999999995" y="44" width="30" height="30" as="geometry" />
        </mxCell>
        <mxCell id="xkKTBkhneHixOB8WJE4L-55" value="" style="shape=image;html=1;verticalAlign=top;verticalLabelPosition=bottom;labelBackgroundColor=#ffffff;imageAspect=0;aspect=fixed;image=https://cdn4.iconfinder.com/data/icons/logos-3/568/php-logo-128.png" parent="xkKTBkhneHixOB8WJE4L-52" vertex="1">
          <mxGeometry x="11.879999999999995" y="10" width="30" height="30" as="geometry" />
        </mxCell>
        <mxCell id="xkKTBkhneHixOB8WJE4L-59" value="Auth Server" style="rounded=1;whiteSpace=wrap;html=1;" parent="43L5ap1hN-f6bD0QUk5p-33" vertex="1">
          <mxGeometry width="120" height="40" as="geometry" />
        </mxCell>
        <mxCell id="43L5ap1hN-f6bD0QUk5p-13" value="" style="group" vertex="1" connectable="0" parent="wpemW0vhm0GdFGpqE2XI-3">
          <mxGeometry y="140" width="120" height="100" as="geometry" />
        </mxCell>
        <mxCell id="xkKTBkhneHixOB8WJE4L-56" value="DB_Auth" style="shape=cylinder3;whiteSpace=wrap;html=1;boundedLbl=1;backgroundOutline=1;size=15;fillColor=#f8cecc;strokeColor=#b85450;" parent="43L5ap1hN-f6bD0QUk5p-13" vertex="1">
          <mxGeometry y="20" width="120" height="80" as="geometry" />
        </mxCell>
        <mxCell id="43L5ap1hN-f6bD0QUk5p-3" value="" style="shape=image;verticalLabelPosition=bottom;labelBackgroundColor=default;verticalAlign=top;aspect=fixed;imageAspect=0;image=https://cdn-icons-png.flaticon.com/512/5968/5968364.png;" vertex="1" parent="43L5ap1hN-f6bD0QUk5p-13">
          <mxGeometry x="35" width="50" height="50" as="geometry" />
        </mxCell>
        <mxCell id="wpemW0vhm0GdFGpqE2XI-4" value="" style="group" vertex="1" connectable="0" parent="1">
          <mxGeometry x="840" y="480" width="120" height="240" as="geometry" />
        </mxCell>
        <mxCell id="xkKTBkhneHixOB8WJE4L-2" value="" style="group" parent="wpemW0vhm0GdFGpqE2XI-4" vertex="1" connectable="0">
          <mxGeometry width="120" height="140" as="geometry" />
        </mxCell>
        <mxCell id="xkKTBkhneHixOB8WJE4L-3" value="Device Service" style="rounded=1;whiteSpace=wrap;html=1;" parent="xkKTBkhneHixOB8WJE4L-2" vertex="1">
          <mxGeometry width="120" height="40" as="geometry" />
        </mxCell>
        <UserObject label="" id="xkKTBkhneHixOB8WJE4L-4">
          <mxCell style="group" parent="xkKTBkhneHixOB8WJE4L-2" vertex="1" connectable="0">
            <mxGeometry x="10" y="60" width="100" height="80" as="geometry" />
          </mxCell>
        </UserObject>
        <mxCell id="xkKTBkhneHixOB8WJE4L-5" value="" style="sketch=0;pointerEvents=1;shadow=0;dashed=0;html=1;strokeColor=none;fillColor=#505050;labelPosition=center;verticalLabelPosition=bottom;verticalAlign=top;outlineConnect=0;align=center;shape=mxgraph.office.servers.server_generic;" parent="xkKTBkhneHixOB8WJE4L-4" vertex="1">
          <mxGeometry x="50" width="40" height="80" as="geometry" />
        </mxCell>
        <mxCell id="xkKTBkhneHixOB8WJE4L-6" value="" style="shape=image;html=1;verticalAlign=top;verticalLabelPosition=bottom;labelBackgroundColor=#ffffff;imageAspect=0;aspect=fixed;image=https://cdn3.iconfinder.com/data/icons/popular-services-brands/512/laravel-128.png" parent="xkKTBkhneHixOB8WJE4L-4" vertex="1">
          <mxGeometry x="11.879999999999995" y="44" width="30" height="30" as="geometry" />
        </mxCell>
        <mxCell id="xkKTBkhneHixOB8WJE4L-7" value="" style="shape=image;html=1;verticalAlign=top;verticalLabelPosition=bottom;labelBackgroundColor=#ffffff;imageAspect=0;aspect=fixed;image=https://cdn4.iconfinder.com/data/icons/logos-3/568/php-logo-128.png" parent="xkKTBkhneHixOB8WJE4L-4" vertex="1">
          <mxGeometry x="11.879999999999995" y="10" width="30" height="30" as="geometry" />
        </mxCell>
        <mxCell id="43L5ap1hN-f6bD0QUk5p-20" value="" style="group" vertex="1" connectable="0" parent="wpemW0vhm0GdFGpqE2XI-4">
          <mxGeometry y="140" width="120" height="100" as="geometry" />
        </mxCell>
        <mxCell id="43L5ap1hN-f6bD0QUk5p-18" value="DB_Device" style="shape=cylinder3;whiteSpace=wrap;html=1;boundedLbl=1;backgroundOutline=1;size=15;fillColor=#f8cecc;strokeColor=#b85450;" vertex="1" parent="43L5ap1hN-f6bD0QUk5p-20">
          <mxGeometry y="20" width="120" height="80" as="geometry" />
        </mxCell>
        <mxCell id="43L5ap1hN-f6bD0QUk5p-17" value="" style="shape=image;verticalLabelPosition=bottom;labelBackgroundColor=default;verticalAlign=top;aspect=fixed;imageAspect=0;image=https://cdn-icons-png.flaticon.com/512/5968/5968342.png;" vertex="1" parent="43L5ap1hN-f6bD0QUk5p-20">
          <mxGeometry x="40" y="10" width="40" height="40" as="geometry" />
        </mxCell>
        <mxCell id="wpemW0vhm0GdFGpqE2XI-5" value="" style="group" vertex="1" connectable="0" parent="1">
          <mxGeometry x="1000" y="480" width="120" height="240" as="geometry" />
        </mxCell>
        <mxCell id="xkKTBkhneHixOB8WJE4L-10" value="" style="group" parent="wpemW0vhm0GdFGpqE2XI-5" vertex="1" connectable="0">
          <mxGeometry width="120" height="140" as="geometry" />
        </mxCell>
        <mxCell id="43L5ap1hN-f6bD0QUk5p-30" value="" style="group" vertex="1" connectable="0" parent="xkKTBkhneHixOB8WJE4L-10">
          <mxGeometry width="120" height="140" as="geometry" />
        </mxCell>
        <mxCell id="xkKTBkhneHixOB8WJE4L-11" value="Staff Service" style="rounded=1;whiteSpace=wrap;html=1;" parent="43L5ap1hN-f6bD0QUk5p-30" vertex="1">
          <mxGeometry width="120" height="40" as="geometry" />
        </mxCell>
        <UserObject label="" id="xkKTBkhneHixOB8WJE4L-12">
          <mxCell style="group" parent="43L5ap1hN-f6bD0QUk5p-30" vertex="1" connectable="0">
            <mxGeometry x="10" y="60" width="100" height="80" as="geometry" />
          </mxCell>
        </UserObject>
        <mxCell id="xkKTBkhneHixOB8WJE4L-13" value="" style="sketch=0;pointerEvents=1;shadow=0;dashed=0;html=1;strokeColor=none;fillColor=#505050;labelPosition=center;verticalLabelPosition=bottom;verticalAlign=top;outlineConnect=0;align=center;shape=mxgraph.office.servers.server_generic;" parent="xkKTBkhneHixOB8WJE4L-12" vertex="1">
          <mxGeometry x="50" width="40" height="80" as="geometry" />
        </mxCell>
        <mxCell id="xkKTBkhneHixOB8WJE4L-14" value="" style="shape=image;html=1;verticalAlign=top;verticalLabelPosition=bottom;labelBackgroundColor=#ffffff;imageAspect=0;aspect=fixed;image=https://cdn3.iconfinder.com/data/icons/popular-services-brands/512/laravel-128.png" parent="xkKTBkhneHixOB8WJE4L-12" vertex="1">
          <mxGeometry x="11.879999999999995" y="44" width="30" height="30" as="geometry" />
        </mxCell>
        <mxCell id="xkKTBkhneHixOB8WJE4L-15" value="" style="shape=image;html=1;verticalAlign=top;verticalLabelPosition=bottom;labelBackgroundColor=#ffffff;imageAspect=0;aspect=fixed;image=https://cdn4.iconfinder.com/data/icons/logos-3/568/php-logo-128.png" parent="xkKTBkhneHixOB8WJE4L-12" vertex="1">
          <mxGeometry x="11.879999999999995" y="10" width="30" height="30" as="geometry" />
        </mxCell>
        <mxCell id="43L5ap1hN-f6bD0QUk5p-26" value="" style="group" vertex="1" connectable="0" parent="wpemW0vhm0GdFGpqE2XI-5">
          <mxGeometry y="140" width="120" height="100" as="geometry" />
        </mxCell>
        <mxCell id="43L5ap1hN-f6bD0QUk5p-27" value="DB_Staff" style="shape=cylinder3;whiteSpace=wrap;html=1;boundedLbl=1;backgroundOutline=1;size=15;fillColor=#f8cecc;strokeColor=#b85450;" vertex="1" parent="43L5ap1hN-f6bD0QUk5p-26">
          <mxGeometry y="20" width="120" height="80" as="geometry" />
        </mxCell>
        <mxCell id="43L5ap1hN-f6bD0QUk5p-28" value="" style="shape=image;verticalLabelPosition=bottom;labelBackgroundColor=default;verticalAlign=top;aspect=fixed;imageAspect=0;image=https://cdn-icons-png.flaticon.com/512/5968/5968364.png;" vertex="1" parent="43L5ap1hN-f6bD0QUk5p-26">
          <mxGeometry x="35" width="50" height="50" as="geometry" />
        </mxCell>
        <mxCell id="wpemW0vhm0GdFGpqE2XI-9" value="" style="group" vertex="1" connectable="0" parent="1">
          <mxGeometry x="200" y="480" width="120" height="40" as="geometry" />
        </mxCell>
        <mxCell id="CWDdZMECSoDCCekiQztZ-1" value="Media" style="rounded=1;whiteSpace=wrap;html=1;" parent="wpemW0vhm0GdFGpqE2XI-9" vertex="1">
          <mxGeometry width="120" height="40" as="geometry" />
        </mxCell>
        <mxCell id="wpemW0vhm0GdFGpqE2XI-8" value="" style="sketch=0;pointerEvents=1;shadow=0;dashed=0;html=1;strokeColor=none;fillColor=#505050;labelPosition=center;verticalLabelPosition=bottom;verticalAlign=top;outlineConnect=0;align=center;shape=mxgraph.office.devices.hard_disk;" vertex="1" parent="wpemW0vhm0GdFGpqE2XI-9">
          <mxGeometry x="10" y="7.5" width="20" height="25" as="geometry" />
        </mxCell>
        <mxCell id="43L5ap1hN-f6bD0QUk5p-32" value="" style="group" vertex="1" connectable="0" parent="1">
          <mxGeometry x="200" y="560" width="120" height="140" as="geometry" />
        </mxCell>
        <mxCell id="xkKTBkhneHixOB8WJE4L-36" value="Config Server" style="rounded=1;whiteSpace=wrap;html=1;container=0;" parent="43L5ap1hN-f6bD0QUk5p-32" vertex="1">
          <mxGeometry width="120" height="40" as="geometry" />
        </mxCell>
        <mxCell id="xkKTBkhneHixOB8WJE4L-38" value="" style="sketch=0;pointerEvents=1;shadow=0;dashed=0;html=1;strokeColor=none;fillColor=#505050;labelPosition=center;verticalLabelPosition=bottom;verticalAlign=top;outlineConnect=0;align=center;shape=mxgraph.office.servers.server_generic;container=0;" parent="43L5ap1hN-f6bD0QUk5p-32" vertex="1">
          <mxGeometry x="60" y="60" width="40" height="80" as="geometry" />
        </mxCell>
        <mxCell id="xkKTBkhneHixOB8WJE4L-40" value="" style="shape=image;html=1;verticalAlign=top;verticalLabelPosition=bottom;labelBackgroundColor=#ffffff;imageAspect=0;aspect=fixed;image=https://cdn4.iconfinder.com/data/icons/logos-3/568/php-logo-128.png;container=0;" parent="43L5ap1hN-f6bD0QUk5p-32" vertex="1">
          <mxGeometry x="21.879999999999995" y="70" width="30" height="30" as="geometry" />
        </mxCell>
        <mxCell id="xkKTBkhneHixOB8WJE4L-60" value="" style="shape=image;html=1;verticalAlign=top;verticalLabelPosition=bottom;labelBackgroundColor=#ffffff;imageAspect=0;aspect=fixed;image=https://cdn3.iconfinder.com/data/icons/popular-services-brands/512/laravel-128.png;container=0;" parent="43L5ap1hN-f6bD0QUk5p-32" vertex="1">
          <mxGeometry x="21.879999999999995" y="100" width="30" height="30" as="geometry" />
        </mxCell>
        <mxCell id="wpemW0vhm0GdFGpqE2XI-11" value="" style="group" vertex="1" connectable="0" parent="1">
          <mxGeometry x="40" y="560" width="120" height="240" as="geometry" />
        </mxCell>
        <mxCell id="43L5ap1hN-f6bD0QUk5p-12" value="" style="group" vertex="1" connectable="0" parent="wpemW0vhm0GdFGpqE2XI-11">
          <mxGeometry y="140" width="120" height="100" as="geometry" />
        </mxCell>
        <mxCell id="xkKTBkhneHixOB8WJE4L-68" value="DB_Adminpanel" style="shape=cylinder3;whiteSpace=wrap;html=1;boundedLbl=1;backgroundOutline=1;size=15;fillColor=#f8cecc;strokeColor=#b85450;" parent="43L5ap1hN-f6bD0QUk5p-12" vertex="1">
          <mxGeometry y="20" width="120" height="80" as="geometry" />
        </mxCell>
        <mxCell id="43L5ap1hN-f6bD0QUk5p-1" value="" style="shape=image;verticalLabelPosition=bottom;labelBackgroundColor=default;verticalAlign=top;aspect=fixed;imageAspect=0;image=https://static-00.iconduck.com/assets.00/mysql-original-wordmark-icon-2048x1064-jfbaqrzh.png;container=0;" vertex="1" parent="43L5ap1hN-f6bD0QUk5p-12">
          <mxGeometry x="21.480000000000018" width="77.04" height="40" as="geometry" />
        </mxCell>
        <mxCell id="43L5ap1hN-f6bD0QUk5p-31" value="" style="group" vertex="1" connectable="0" parent="wpemW0vhm0GdFGpqE2XI-11">
          <mxGeometry width="120" height="140" as="geometry" />
        </mxCell>
        <mxCell id="xkKTBkhneHixOB8WJE4L-63" value="AdminPanel" style="rounded=1;whiteSpace=wrap;html=1;" parent="43L5ap1hN-f6bD0QUk5p-31" vertex="1">
          <mxGeometry width="120" height="40" as="geometry" />
        </mxCell>
        <UserObject label="" id="xkKTBkhneHixOB8WJE4L-64">
          <mxCell style="group" parent="43L5ap1hN-f6bD0QUk5p-31" vertex="1" connectable="0">
            <mxGeometry x="10" y="60" width="100" height="80" as="geometry" />
          </mxCell>
        </UserObject>
        <mxCell id="xkKTBkhneHixOB8WJE4L-66" value="" style="shape=image;html=1;verticalAlign=top;verticalLabelPosition=bottom;labelBackgroundColor=#ffffff;imageAspect=0;aspect=fixed;image=https://cdn4.iconfinder.com/data/icons/logos-3/568/php-logo-128.png" parent="xkKTBkhneHixOB8WJE4L-64" vertex="1">
          <mxGeometry x="10" y="10" width="30" height="30" as="geometry" />
        </mxCell>
        <mxCell id="xkKTBkhneHixOB8WJE4L-67" value="" style="shape=image;html=1;verticalAlign=top;verticalLabelPosition=bottom;labelBackgroundColor=#ffffff;imageAspect=0;aspect=fixed;image=https://cdn3.iconfinder.com/data/icons/popular-services-brands/512/laravel-128.png" parent="xkKTBkhneHixOB8WJE4L-64" vertex="1">
          <mxGeometry x="10" y="40" width="30" height="30" as="geometry" />
        </mxCell>
        <mxCell id="wpemW0vhm0GdFGpqE2XI-13" value="" style="sketch=0;pointerEvents=1;shadow=0;dashed=0;html=1;strokeColor=none;fillColor=#505050;labelPosition=center;verticalLabelPosition=bottom;verticalAlign=top;outlineConnect=0;align=center;shape=mxgraph.office.servers.server_generic;" vertex="1" parent="xkKTBkhneHixOB8WJE4L-64">
          <mxGeometry x="50" width="40" height="80" as="geometry" />
        </mxCell>
        <mxCell id="wpemW0vhm0GdFGpqE2XI-16" value="" style="group" vertex="1" connectable="0" parent="1">
          <mxGeometry x="520" y="360" width="120" height="40" as="geometry" />
        </mxCell>
        <mxCell id="wpemW0vhm0GdFGpqE2XI-18" value="" style="group" vertex="1" connectable="0" parent="wpemW0vhm0GdFGpqE2XI-16">
          <mxGeometry width="120" height="40" as="geometry" />
        </mxCell>
        <mxCell id="wpemW0vhm0GdFGpqE2XI-15" value="&amp;nbsp; &amp;nbsp; &amp;nbsp; &amp;nbsp; &amp;nbsp; Gateway" style="rounded=1;whiteSpace=wrap;html=1;" vertex="1" parent="wpemW0vhm0GdFGpqE2XI-18">
          <mxGeometry width="120" height="40" as="geometry" />
        </mxCell>
        <mxCell id="wpemW0vhm0GdFGpqE2XI-14" value="" style="shape=image;verticalLabelPosition=bottom;labelBackgroundColor=default;verticalAlign=top;aspect=fixed;imageAspect=0;image=https://cdn-icons-png.flaticon.com/512/2164/2164832.png;" vertex="1" parent="wpemW0vhm0GdFGpqE2XI-18">
          <mxGeometry x="10" y="4.5" width="31" height="31" as="geometry" />
        </mxCell>
        <mxCell id="wpemW0vhm0GdFGpqE2XI-19" style="edgeStyle=orthogonalEdgeStyle;rounded=0;orthogonalLoop=1;jettySize=auto;html=1;exitX=0.5;exitY=0;exitDx=0;exitDy=0;entryX=0.5;entryY=1;entryDx=0;entryDy=0;" edge="1" parent="1" source="xkKTBkhneHixOB8WJE4L-59" target="wpemW0vhm0GdFGpqE2XI-15">
          <mxGeometry relative="1" as="geometry" />
        </mxCell>
        <mxCell id="wpemW0vhm0GdFGpqE2XI-21" style="edgeStyle=orthogonalEdgeStyle;rounded=0;orthogonalLoop=1;jettySize=auto;html=1;entryX=0.5;entryY=1;entryDx=0;entryDy=0;" edge="1" parent="1" source="xkKTBkhneHixOB8WJE4L-3" target="wpemW0vhm0GdFGpqE2XI-15">
          <mxGeometry relative="1" as="geometry">
            <Array as="points">
              <mxPoint x="900" y="440" />
              <mxPoint x="580" y="440" />
            </Array>
          </mxGeometry>
        </mxCell>
        <mxCell id="wpemW0vhm0GdFGpqE2XI-22" style="edgeStyle=orthogonalEdgeStyle;rounded=0;orthogonalLoop=1;jettySize=auto;html=1;exitX=0.5;exitY=0;exitDx=0;exitDy=0;entryX=0.5;entryY=1;entryDx=0;entryDy=0;" edge="1" parent="1" source="xkKTBkhneHixOB8WJE4L-11" target="wpemW0vhm0GdFGpqE2XI-15">
          <mxGeometry relative="1" as="geometry" />
        </mxCell>
      </root>
    </mxGraphModel>
  </diagram>
  <diagram id="wZjCUTF8q73ZakTLoRfZ" name="API Gateway">
    <mxGraphModel dx="984" dy="433" grid="1" gridSize="10" guides="1" tooltips="1" connect="1" arrows="1" fold="1" page="1" pageScale="1" pageWidth="850" pageHeight="1100" math="0" shadow="0">
      <root>
        <mxCell id="0" />
        <mxCell id="1" parent="0" />
        <mxCell id="itbTuKBZOuvL5Txidx95-3" value="Customer Service" style="rounded=1;whiteSpace=wrap;html=1;fillColor=#999999;" parent="1" vertex="1">
          <mxGeometry x="280" y="230" width="120" height="40" as="geometry" />
        </mxCell>
        <mxCell id="itbTuKBZOuvL5Txidx95-11" value="Device Service&lt;br&gt;8300" style="rounded=1;whiteSpace=wrap;html=1;" parent="1" vertex="1">
          <mxGeometry x="280" y="130" width="120" height="40" as="geometry" />
        </mxCell>
        <mxCell id="itbTuKBZOuvL5Txidx95-19" value="Staff Service" style="rounded=1;whiteSpace=wrap;html=1;fillColor=#999999;" parent="1" vertex="1">
          <mxGeometry x="280" y="180" width="120" height="40" as="geometry" />
        </mxCell>
        <mxCell id="itbTuKBZOuvL5Txidx95-36" value="Notification Server&lt;br&gt;:8000/notification-server&lt;br style=&quot;border-color: var(--border-color);&quot;&gt;8888" style="rounded=1;whiteSpace=wrap;html=1;fillColor=#f8cecc;strokeColor=#b85450;" parent="1" vertex="1">
          <mxGeometry x="40" y="270" width="160" height="50" as="geometry" />
        </mxCell>
        <mxCell id="itbTuKBZOuvL5Txidx95-60" value="Config Server&lt;br&gt;:8000/config-server&lt;br style=&quot;border-color: var(--border-color);&quot;&gt;8700" style="rounded=1;whiteSpace=wrap;html=1;fillColor=#f8cecc;strokeColor=#b85450;" parent="1" vertex="1">
          <mxGeometry x="40" y="200" width="160" height="50" as="geometry" />
        </mxCell>
        <mxCell id="itbTuKBZOuvL5Txidx95-46" value="Auth Server&lt;br&gt;:8000/auth-server&lt;br&gt;8500" style="rounded=1;whiteSpace=wrap;html=1;fillColor=#f8cecc;strokeColor=#b85450;" parent="1" vertex="1">
          <mxGeometry x="40" y="130" width="160" height="50" as="geometry" />
        </mxCell>
        <mxCell id="itbTuKBZOuvL5Txidx95-49" value="AdminPanel&lt;br&gt;8200" style="rounded=1;whiteSpace=wrap;html=1;" parent="1" vertex="1">
          <mxGeometry x="640" y="40" width="120" height="40" as="geometry" />
        </mxCell>
        <mxCell id="itbTuKBZOuvL5Txidx95-31" value="Website&lt;br&gt;80" style="rounded=1;whiteSpace=wrap;html=1;" parent="1" vertex="1">
          <mxGeometry x="640" y="160" width="120" height="40" as="geometry" />
        </mxCell>
        <mxCell id="itbTuKBZOuvL5Txidx95-26" value="Staff App&lt;br&gt;3030" style="rounded=1;whiteSpace=wrap;html=1;" parent="1" vertex="1">
          <mxGeometry x="480" y="160" width="120" height="40" as="geometry" />
        </mxCell>
        <mxCell id="11gf3nv9ilDiFiaMuEmA-8" style="edgeStyle=orthogonalEdgeStyle;rounded=0;orthogonalLoop=1;jettySize=auto;html=1;entryX=1;entryY=0.5;entryDx=0;entryDy=0;" parent="1" source="HvwcbA_cZl2NOecgoTLC-3" target="itbTuKBZOuvL5Txidx95-46" edge="1">
          <mxGeometry relative="1" as="geometry" />
        </mxCell>
        <mxCell id="11gf3nv9ilDiFiaMuEmA-9" style="edgeStyle=orthogonalEdgeStyle;rounded=0;orthogonalLoop=1;jettySize=auto;html=1;entryX=1;entryY=0.5;entryDx=0;entryDy=0;" parent="1" source="HvwcbA_cZl2NOecgoTLC-3" target="itbTuKBZOuvL5Txidx95-60" edge="1">
          <mxGeometry relative="1" as="geometry" />
        </mxCell>
        <mxCell id="11gf3nv9ilDiFiaMuEmA-10" style="edgeStyle=orthogonalEdgeStyle;rounded=0;orthogonalLoop=1;jettySize=auto;html=1;entryX=1;entryY=0.5;entryDx=0;entryDy=0;" parent="1" source="HvwcbA_cZl2NOecgoTLC-3" target="itbTuKBZOuvL5Txidx95-36" edge="1">
          <mxGeometry relative="1" as="geometry" />
        </mxCell>
        <mxCell id="HvwcbA_cZl2NOecgoTLC-3" value="API Gateway&lt;br&gt;8000" style="rounded=1;whiteSpace=wrap;html=1;fillColor=#FFE599;" parent="1" vertex="1">
          <mxGeometry x="160" y="40" width="120" height="40" as="geometry" />
        </mxCell>
        <mxCell id="HvwcbA_cZl2NOecgoTLC-4" value="phpMyAdmin&lt;br&gt;8900" style="rounded=1;whiteSpace=wrap;html=1;" parent="1" vertex="1">
          <mxGeometry x="480" y="40" width="120" height="40" as="geometry" />
        </mxCell>
      </root>
    </mxGraphModel>
  </diagram>
  <diagram id="tSxx90y2wyvGQ47EcMQz" name="Page-3">
    <mxGraphModel dx="1354" dy="786" grid="1" gridSize="10" guides="1" tooltips="1" connect="1" arrows="1" fold="1" page="1" pageScale="1" pageWidth="850" pageHeight="1100" math="0" shadow="0">
      <root>
        <mxCell id="0" />
        <mxCell id="1" parent="0" />
        <mxCell id="-d2vv3FTKuytWog44XH9-1" value="" style="group" vertex="1" connectable="0" parent="1">
          <mxGeometry x="190" y="30" width="120" height="140" as="geometry" />
        </mxCell>
        <mxCell id="-d2vv3FTKuytWog44XH9-2" value="Staff App" style="rounded=1;whiteSpace=wrap;html=1;" vertex="1" parent="-d2vv3FTKuytWog44XH9-1">
          <mxGeometry width="120" height="40" as="geometry" />
        </mxCell>
        <UserObject label="" id="-d2vv3FTKuytWog44XH9-3">
          <mxCell style="group" vertex="1" connectable="0" parent="-d2vv3FTKuytWog44XH9-1">
            <mxGeometry x="10" y="60" width="100" height="80" as="geometry" />
          </mxCell>
        </UserObject>
        <mxCell id="-d2vv3FTKuytWog44XH9-4" value="" style="sketch=0;pointerEvents=1;shadow=0;dashed=0;html=1;strokeColor=none;fillColor=#505050;labelPosition=center;verticalLabelPosition=bottom;verticalAlign=top;outlineConnect=0;align=center;shape=mxgraph.office.servers.server_generic;" vertex="1" parent="-d2vv3FTKuytWog44XH9-3">
          <mxGeometry x="50" width="40" height="80" as="geometry" />
        </mxCell>
        <mxCell id="-d2vv3FTKuytWog44XH9-5" value="" style="shape=image;html=1;verticalAlign=top;verticalLabelPosition=bottom;labelBackgroundColor=#ffffff;imageAspect=0;aspect=fixed;image=https://cdn4.iconfinder.com/data/icons/logos-3/600/React.js_logo-128.png" vertex="1" parent="-d2vv3FTKuytWog44XH9-3">
          <mxGeometry y="21.509999999999998" width="36.99" height="36.99" as="geometry" />
        </mxCell>
        <mxCell id="-d2vv3FTKuytWog44XH9-6" value="" style="group" vertex="1" connectable="0" parent="1">
          <mxGeometry x="50" y="30" width="120" height="140" as="geometry" />
        </mxCell>
        <mxCell id="-d2vv3FTKuytWog44XH9-7" value="Website" style="rounded=1;whiteSpace=wrap;html=1;" vertex="1" parent="-d2vv3FTKuytWog44XH9-6">
          <mxGeometry width="120" height="40" as="geometry" />
        </mxCell>
        <UserObject label="" id="-d2vv3FTKuytWog44XH9-8">
          <mxCell style="group" vertex="1" connectable="0" parent="-d2vv3FTKuytWog44XH9-6">
            <mxGeometry x="10" y="60" width="100" height="80" as="geometry" />
          </mxCell>
        </UserObject>
        <mxCell id="-d2vv3FTKuytWog44XH9-9" value="" style="sketch=0;pointerEvents=1;shadow=0;dashed=0;html=1;strokeColor=none;fillColor=#505050;labelPosition=center;verticalLabelPosition=bottom;verticalAlign=top;outlineConnect=0;align=center;shape=mxgraph.office.servers.server_generic;" vertex="1" parent="-d2vv3FTKuytWog44XH9-8">
          <mxGeometry x="50" width="40" height="80" as="geometry" />
        </mxCell>
        <mxCell id="-d2vv3FTKuytWog44XH9-10" value="" style="shape=image;html=1;verticalAlign=top;verticalLabelPosition=bottom;labelBackgroundColor=#ffffff;imageAspect=0;aspect=fixed;image=https://cdn4.iconfinder.com/data/icons/logos-3/600/React.js_logo-128.png" vertex="1" parent="-d2vv3FTKuytWog44XH9-8">
          <mxGeometry y="21.509999999999998" width="36.99" height="36.99" as="geometry" />
        </mxCell>
      </root>
    </mxGraphModel>
  </diagram>
</mxfile>
